<svg xmlns="http://www.w3.org/2000/svg" width="150" height="44" viewBox="0 0 150 44" fill="none" aria-hidden="true">
  <path d="M94.0487 3.89885L101.223 3.87875V18.6786C103.604 15.2524 108.577 14.1673 112.606 15.8251C116.675 17.4327 117.962 20.3163 118.152 20.7082C118.574 21.5923 118.836 22.5368 118.986 23.5013C120.031 30.0221 117.891 36.6936 119.81 43.1139H112.847C111.029 38.5925 112.074 33.4784 112.084 28.6054C112.084 27.239 111.993 25.8323 111.391 24.5965C110.547 22.8684 108.688 21.6828 106.759 21.6526C104.83 21.6225 102.931 22.7478 102.036 24.4558C101.263 25.9328 101.212 27.7012 101.212 29.369V43.1139H94.0386V3.89885H94.0487Z" fill="#7963F1"/>
  <path d="M65.6799 28.6996C65.7904 20.8024 60.8571 14.9548 53.3417 15.0251C48.3079 15.0653 43.8368 17.5571 41.5058 22.0081C38.9538 26.8107 39.1145 33.5123 42.2795 38.0035C46.9113 44.2932 56.2353 45.6094 65.1675 41.3895L62.8967 35.6524C55.4617 38.8877 47.3132 37.9834 46.841 31.312H65.6698V28.6996H65.6799ZM47.0018 25.9868C47.4941 24.4496 48.2476 23.3845 49.3629 22.5506C51.503 20.8426 55.3511 20.6717 57.441 22.4501C58.4357 23.264 59.1491 24.4496 59.5711 25.9868H46.9917H47.0018Z" fill="#7963F1"/>
  <path d="M23.8526 25.3195C23.8526 25.3195 23.8626 21.1096 20.4465 21.0996H12.6095V43.1134H5.43565V21.0996H0V15.1314H5.43565V10.3388C5.43565 6.26958 9.25368 0 17.7035 0C26.1534 0 29.3485 7.20399 29.3485 7.20399L23.7822 11.1225C23.7822 11.1225 22.2349 6.60115 17.7035 6.60115C15.6639 6.60115 12.6095 8.16855 12.6095 11.4741V15.1214H23.7722C28.6351 15.1214 30.0217 18.869 30.0217 18.869C31.8603 14.5487 38.4113 15.0209 39.7174 15.2821V20.9689C35.2061 20.6575 30.9862 23.2095 31.0365 28.4141V43.1034H23.8626V25.2994L23.8526 25.3195Z" fill="#7963F1"/>
  <path d="M89.3318 29.662C87.0913 27.4114 81.3944 26.7483 77.8979 26.0249C76.1396 25.6531 74.6827 25.2412 74.6526 23.4929C74.7128 21.3729 76.8128 20.6998 78.9629 20.6998C81.1231 20.6897 83.4139 21.604 84.5995 23.3824L90.0251 20.4385C86.9807 15.0431 78.6213 13.8273 73.3363 16.088C71.6685 16.8114 70.3724 17.8262 69.458 19.1424C67.4385 21.8452 67.6194 26.678 70.0709 28.8582C71.3972 30.1242 73.467 31.0385 76.2702 31.6012L81.3743 32.6059C83.2933 33.048 84.8105 33.3997 84.8306 35.2886C84.8004 37.6095 82.2082 38.2325 79.9877 38.2325C74.1602 38.2325 73.0349 32.7968 73.0148 32.7064L66.4338 34.7259C66.8457 36.5144 69.1466 43.8088 79.8772 43.8088C85.976 43.7987 91.271 41.4678 91.3112 35.1178C91.3112 32.6562 90.6581 30.8376 89.3419 29.6419L89.3318 29.662Z" fill="#7963F1"/>
  <path d="M148.362 38.0563C147.096 38.0563 146.081 37.2726 145.971 35.4138C145.91 34.5498 145.699 31.3547 145.719 30.6112C145.79 25.8788 145.91 21.3575 142.534 18.1021C138.947 14.4047 130.548 14.1535 126.026 16.9869C124.348 17.9715 122.922 19.2676 121.736 20.8652L125.936 25.2258C127.644 22.5732 129.915 21.2369 132.758 21.2369C135.26 21.1164 137.571 22.302 138.385 24.9645C132.698 26.4214 125.343 27.0343 122.228 32.7312C120.812 35.5143 121.103 39.0209 123.243 41.3619C124.971 43.2408 127.714 43.8235 130.166 43.8235C134.275 43.8637 138.103 42.869 140.475 39.272C141.781 42.3265 144.554 43.8336 147.849 43.8336C148.382 43.8235 148.884 43.7029 149.336 43.5321V38.0563C149.115 38.0563 148.794 38.0563 148.352 38.0563H148.362ZM138.566 32.2891C138.676 36.2176 135.461 38.5788 131.834 38.5687C129.875 38.5687 128.508 37.6946 128.518 35.665C128.548 33.5651 130.297 32.7915 132.356 32.1886L138.576 30.4203V32.2891H138.566Z" fill="#7963F1"/>
</svg>
